<svg width="24" height="24" viewBox="0 0 24 24" fill="none" xmlns="http://www.w3.org/2000/svg">
<path d="M12.2447 4.64001C14.544 4.64001 16.095 5.61334 16.9794 6.42668L20.4352 3.12001C18.3127 1.18667 15.5508 0 12.2447 0C7.45557 0 3.31951 2.69334 1.30591 6.61335L5.26509 9.62669C6.25829 6.73335 9.00659 4.64001 12.2447 4.64001Z" fill="#EA4335"/>
<path d="M23.9998 12.2667C23.9998 11.28 23.9181 10.56 23.7413 9.81335H12.2447V14.2667H18.993C18.8569 15.3734 18.1222 17.04 16.4896 18.16L20.3535 21.0934C22.6664 19 23.9998 15.92 23.9998 12.2667Z" fill="#4285F4"/>
<path d="M5.27867 14.3733C5.02016 13.6267 4.8705 12.8267 4.8705 12C4.8705 11.1733 5.02019 10.3734 5.26509 9.62669L1.30591 6.61335C0.475976 8.24002 -0.000244141 10.0667 -0.000244141 12C-0.000244141 13.9333 0.475946 15.76 1.30588 17.3867L5.27867 14.3733Z" fill="#FBBC05"/>
<path d="M12.2446 24C15.5507 24 18.3263 22.9334 20.3535 21.0934L16.4896 18.16C15.4555 18.8667 14.0678 19.36 12.2446 19.36C9.00653 19.36 6.25826 17.2667 5.27867 14.3733L1.31946 17.3867C3.33306 21.3067 7.45551 24 12.2446 24Z" fill="#34A853"/>
</svg>
