<svg width="16" height="24" viewBox="0 0 16 24" fill="none" xmlns="http://www.w3.org/2000/svg">
<path d="M12.8 1.5C13.2243 1.5 13.6313 1.65804 13.9314 1.93934C14.2314 2.22064 14.4 2.60218 14.4 3V21C14.4 21.3978 14.2314 21.7794 13.9314 22.0607C13.6313 22.342 13.2243 22.5 12.8 22.5H3.2C2.77565 22.5 2.36869 22.342 2.06863 22.0607C1.76857 21.7794 1.6 21.3978 1.6 21V3C1.6 2.60218 1.76857 2.22064 2.06863 1.93934C2.36869 1.65804 2.77565 1.5 3.2 1.5H12.8ZM3.2 0C2.35131 0 1.53737 0.316071 0.937258 0.87868C0.337142 1.44129 0 2.20435 0 3V21C0 21.7956 0.337142 22.5587 0.937258 23.1213C1.53737 23.6839 2.35131 24 3.2 24H12.8C13.6487 24 14.4626 23.6839 15.0627 23.1213C15.6629 22.5587 16 21.7956 16 21V3C16 2.20435 15.6629 1.44129 15.0627 0.87868C14.4626 0.316071 13.6487 0 12.8 0L3.2 0Z" fill="white" fill-opacity="0.75"/>
<path d="M7.9999 21C8.42425 21 8.83121 20.842 9.13127 20.5607C9.43133 20.2794 9.5999 19.8978 9.5999 19.5C9.5999 19.1022 9.43133 18.7206 9.13127 18.4393C8.83121 18.158 8.42425 18 7.9999 18C7.57556 18 7.16859 18.158 6.86853 18.4393C6.56847 18.7206 6.3999 19.1022 6.3999 19.5C6.3999 19.8978 6.56847 20.2794 6.86853 20.5607C7.16859 20.842 7.57556 21 7.9999 21Z" fill="white" fill-opacity="0.75"/>
</svg>
